<svg xmlns="http://www.w3.org/2000/svg" viewBox="0 0 512 512"><defs><style>.cls-1{fill:#f2cb05;}.cls-2{fill:#202840;}</style></defs><title>personalLogo</title><g id="Layer_2" data-name="Layer 2"><g id="Layer_3" data-name="Layer 3"><circle class="cls-1" cx="256" cy="256" r="250.82"/><path class="cls-2" d="M251.82,351.89a1,1,0,0,1-1-1v-61.4a90.92,90.92,0,0,1-141.2,15.8,1,1,0,0,1,0-1.41L152,261.5a1,1,0,0,1,1.41,0,29,29,0,1,0,0-41,1,1,0,0,1-1.41,0l-42.39-42.38a1,1,0,0,1,0-1.41,91,91,0,0,1,141.2,15.81V151.11a1,1,0,0,1,1-1H401.67a1,1,0,0,1,1,1v59.94a1,1,0,0,1-1,1H312.76v28H371.7a1,1,0,0,1,1,1V301a1,1,0,0,1-1,1H312.76v48.94a1,1,0,0,1-1,1Z"/><path class="cls-2" d="M401.67,151.11v59.94H311.76v30H371.7V301H311.76v49.94H251.82v-65a89.93,89.93,0,0,1-141.49,18.69l42.38-42.39a30,30,0,1,0,0-42.37l-42.38-42.39a90,90,0,0,1,141.49,18.69v-45H401.67m0-2H251.82a2,2,0,0,0-2,2V189.2A91.91,91.91,0,0,0,108.92,176a2,2,0,0,0,0,2.83l42.38,42.38a2,2,0,0,0,2.83,0,28,28,0,1,1,0,39.55,2,2,0,0,0-2.83,0l-42.38,42.38a2,2,0,0,0,0,2.83,92,92,0,0,0,140.9-13.17v58.06a2,2,0,0,0,2,2h59.94a2,2,0,0,0,2-2V303H371.7a2,2,0,0,0,2-2V241a2,2,0,0,0-2-2H313.76v-26h87.91a2,2,0,0,0,2-2V151.11a2,2,0,0,0-2-2Z"/></g></g></svg>