<svg width="502" height="502" viewBox="0 0 502 502" fill="none" xmlns="http://www.w3.org/2000/svg">
<path d="M251 501.82C389.524 501.82 501.82 389.524 501.82 251C501.82 112.476 389.524 0.179993 251 0.179993C112.476 0.179993 0.18 112.476 0.18 251C0.18 389.524 112.476 501.82 251 501.82Z" fill="#CC9712"/>
<path d="M246.82 346.89C246.555 346.89 246.3 346.785 246.113 346.597C245.925 346.41 245.82 346.155 245.82 345.89V284.49C238.542 296.034 228.758 305.792 217.194 313.039C205.63 320.287 192.583 324.838 179.021 326.356C165.458 327.873 151.728 326.318 138.848 321.806C125.969 317.294 114.27 309.94 104.62 300.29C104.434 300.103 104.329 299.849 104.329 299.585C104.329 299.321 104.434 299.067 104.62 298.88L147 256.5C147.187 256.314 147.441 256.209 147.705 256.209C147.969 256.209 148.223 256.314 148.41 256.5C152.465 260.557 157.632 263.321 163.258 264.441C168.884 265.562 174.716 264.989 180.016 262.794C185.316 260.6 189.846 256.883 193.034 252.113C196.221 247.344 197.922 241.736 197.922 236C197.922 230.264 196.221 224.656 193.034 219.887C189.846 215.117 185.316 211.4 180.016 209.206C174.716 207.011 168.884 206.438 163.258 207.558C157.632 208.679 152.465 211.443 148.41 215.5C148.223 215.686 147.969 215.791 147.705 215.791C147.441 215.791 147.187 215.686 147 215.5L104.61 173.12C104.424 172.933 104.319 172.679 104.319 172.415C104.319 172.151 104.424 171.897 104.61 171.71C114.268 162.075 125.969 154.734 138.847 150.231C151.725 145.728 165.45 144.179 179.008 145.697C192.566 147.215 205.608 151.762 217.172 159.001C228.735 166.24 238.522 175.987 245.81 187.52V146.11C245.81 145.845 245.915 145.59 246.103 145.403C246.29 145.215 246.545 145.11 246.81 145.11H396.67C396.935 145.11 397.19 145.215 397.377 145.403C397.565 145.59 397.67 145.845 397.67 146.11V206.05C397.67 206.315 397.565 206.57 397.377 206.757C397.19 206.945 396.935 207.05 396.67 207.05H307.76V235.05H366.7C366.965 235.05 367.22 235.155 367.407 235.343C367.595 235.53 367.7 235.785 367.7 236.05V296C367.7 296.265 367.595 296.52 367.407 296.707C367.22 296.895 366.965 297 366.7 297H307.76V345.94C307.76 346.205 307.655 346.46 307.467 346.647C307.28 346.835 307.025 346.94 306.76 346.94L246.82 346.89Z" fill="#29282A"/>
<path d="M396.67 146.11V206.05H306.76V236.05H366.7V296H306.76V345.94H246.82V280.94C239.929 292.894 230.38 303.102 218.912 310.774C207.444 318.446 194.364 323.376 180.685 325.183C167.006 326.99 153.095 325.625 140.028 321.194C126.961 316.763 115.088 309.385 105.33 299.63L147.71 257.24C151.902 261.444 157.248 264.309 163.069 265.473C168.891 266.637 174.927 266.047 180.413 263.779C185.9 261.511 190.59 257.666 193.89 252.73C197.19 247.795 198.951 241.992 198.951 236.055C198.951 230.118 197.19 224.315 193.89 219.38C190.59 214.444 185.9 210.599 180.413 208.331C174.927 206.063 168.891 205.473 163.069 206.637C157.248 207.801 151.902 210.666 147.71 214.87L105.33 172.48C115.095 162.739 126.968 155.372 140.033 150.949C153.098 146.526 167.005 145.165 180.679 146.971C194.353 148.778 207.43 153.703 218.898 161.366C230.366 169.03 239.919 179.227 246.82 191.17V146.17H396.67M396.67 144.17H246.82C246.29 144.17 245.781 144.381 245.406 144.756C245.031 145.131 244.82 145.64 244.82 146.17V184.2C237.204 173.037 227.219 163.691 215.578 156.828C203.937 149.965 190.926 145.753 177.472 144.492C164.017 143.232 150.45 144.954 137.737 149.536C125.024 154.117 113.477 161.446 103.92 171C103.734 171.186 103.587 171.406 103.486 171.649C103.385 171.892 103.333 172.152 103.333 172.415C103.333 172.678 103.385 172.938 103.486 173.181C103.587 173.424 103.734 173.644 103.92 173.83L146.3 216.21C146.486 216.396 146.706 216.543 146.949 216.644C147.192 216.745 147.452 216.797 147.715 216.797C147.978 216.797 148.238 216.745 148.481 216.644C148.724 216.543 148.944 216.396 149.13 216.21C153.043 212.287 158.032 209.614 163.465 208.528C168.899 207.442 174.532 207.993 179.652 210.11C184.773 212.227 189.15 215.816 192.229 220.422C195.309 225.028 196.953 230.444 196.953 235.985C196.953 241.526 195.309 246.942 192.229 251.548C189.15 256.154 184.773 259.743 179.652 261.86C174.532 263.977 168.899 264.528 163.465 263.442C158.032 262.356 153.043 259.683 149.13 255.76C148.944 255.574 148.724 255.427 148.481 255.326C148.238 255.225 147.978 255.173 147.715 255.173C147.452 255.173 147.192 255.225 146.949 255.326C146.706 255.427 146.486 255.574 146.3 255.76L103.92 298.14C103.734 298.326 103.587 298.546 103.486 298.789C103.385 299.032 103.333 299.292 103.333 299.555C103.333 299.818 103.385 300.078 103.486 300.321C103.587 300.564 103.734 300.784 103.92 300.97C113.483 310.511 125.029 317.828 137.739 322.403C150.449 326.978 164.01 328.698 177.46 327.441C190.909 326.184 203.917 321.98 215.559 315.129C227.201 308.278 237.191 298.947 244.82 287.8V345.86C244.82 346.39 245.031 346.899 245.406 347.274C245.781 347.649 246.29 347.86 246.82 347.86H306.76C307.29 347.86 307.799 347.649 308.174 347.274C308.549 346.899 308.76 346.39 308.76 345.86V298H366.7C367.23 298 367.739 297.789 368.114 297.414C368.489 297.039 368.7 296.53 368.7 296V236C368.7 235.47 368.489 234.961 368.114 234.586C367.739 234.211 367.23 234 366.7 234H308.76V208H396.67C397.2 208 397.709 207.789 398.084 207.414C398.459 207.039 398.67 206.53 398.67 206V146.11C398.67 145.58 398.459 145.071 398.084 144.696C397.709 144.321 397.2 144.11 396.67 144.11V144.17Z" fill="#29282A"/>
</svg>
